<?xml version="1.0" standalone="no"?>
<!DOCTYPE svg PUBLIC "-//W3C//DTD SVG 20010904//EN"
 "http://www.w3.org/TR/2001/REC-SVG-20010904/DTD/svg10.dtd">
<svg version="1.0" xmlns="http://www.w3.org/2000/svg"
 width="431.000000pt" height="431.000000pt" viewBox="0 0 431.000000 431.000000"
 preserveAspectRatio="xMidYMid meet">
<metadata>
Created by potrace 1.14, written by Peter Selinger 2001-2017
</metadata>
<g transform="translate(0.000000,431.000000) scale(0.100000,-0.100000)"
fill="#000000" stroke="none">
<path d="M1703 3839 c-44 -42 -53 -57 -53 -86 0 -32 -2 -35 -22 -29 -13 3 -80
21 -150 40 l-126 34 -51 -52 c-40 -41 -51 -59 -51 -84 0 -35 -5 -37 -60 -21
-36 11 -37 11 -88 -42 -41 -43 -52 -61 -52 -88 0 -25 -4 -32 -14 -28 -8 3 -31
9 -50 13 -34 6 -40 3 -86 -42 -41 -41 -50 -55 -50 -86 l0 -37 -47 14 -48 15
-52 -52 -53 -52 0 -134 c0 -150 8 -136 -70 -117 -21 5 -35 -3 -78 -45 l-52
-50 0 -399 0 -400 52 -15 c29 -8 74 -20 100 -27 l48 -11 2 -201 3 -202 95 -25
95 -26 3 -102 c3 -102 3 -102 30 -108 15 -3 41 -10 57 -14 17 -5 49 -14 72
-20 l42 -11 3 -101 3 -102 98 -25 97 -25 0 -100 0 -101 168 -44 c92 -25 181
-49 199 -53 l32 -9 3 -101 3 -101 125 -34 c69 -19 143 -39 165 -43 22 -5 144
-38 272 -73 l232 -64 50 52 c37 38 50 60 53 86 l3 35 146 -39 145 -39 52 52
c42 42 52 58 52 86 0 19 1 34 3 34 1 0 23 -7 48 -14 l46 -14 52 52 c40 41 51
59 51 84 0 35 6 37 60 22 33 -10 36 -8 87 42 43 43 53 59 53 86 0 31 2 34 25
28 14 -3 36 -9 49 -12 19 -4 34 4 75 45 l51 50 0 136 c0 74 1 135 3 135 1 0
23 -7 48 -14 l46 -14 52 52 51 52 0 400 0 401 -67 17 c-38 10 -81 21 -98 25
l-30 7 -3 202 -2 201 -43 11 c-23 6 -55 15 -72 20 -16 4 -42 11 -57 14 l-28 6
0 103 0 102 -77 18 c-133 32 -123 22 -123 136 l0 99 -47 11 c-27 7 -72 19
-100 27 l-53 15 0 99 c0 85 -2 99 -17 104 -10 3 -88 24 -173 46 -85 23 -166
45 -180 49 -24 7 -25 11 -28 108 l-3 100 -387 103 c-213 57 -391 105 -397 107
-5 1 -34 -20 -62 -48z"/>
</g>
</svg>
